<svg xmlns="http://www.w3.org/2000/svg" viewBox="0 0 2386.07 246.97"><g id="Layer_2" data-name="Layer 2"><g id="Layer_1-2" data-name="Layer 1"><path d="M978.25,64.24l54,124.56c18.49-42.23,36.51-83.39,54.52-124.55l1.54.15c11.27,57.56,22.53,115.13,34,173.45-8.47,0-16.24.17-24-.2-1-.05-2.44-2.75-2.75-4.39-2.28-12.06-4.33-24.15-6.44-36.24q-4.59-26.46-9.19-52.92a27,27,0,0,0-1.27-3.58L1033,244.27l-1.43.09c-15-34.55-30.09-69.1-45.68-104.92-1.53,8.11-2.88,15.06-4.13,22-4.37,24.31-8.68,48.63-13.15,72.93-.23,1.27-1.7,3.28-2.66,3.31-7.44.28-14.9.16-23.2.16,11.41-58.29,22.68-115.88,34-173.48Z" fill="#fff"/><path d="M789.17,64.24l54,124.57c18.45-42.18,36.45-83.3,54.44-124.42l1.59,0,34,173.53c-8.41,0-15.88.21-23.31-.2-1.25-.07-3.09-2.64-3.41-4.3-2.6-13.68-4.92-27.42-7.32-41.13-3-17.15-6-34.3-9.22-52.56L843.15,246,797.46,141l-1,.11c-1.54,8.24-3.13,16.47-4.6,24.71-4.07,22.69-8.06,45.39-12.23,68.06-.26,1.44-1.78,3.76-2.8,3.8-7.43.33-14.89.18-23.16.18,11.39-58.26,22.64-115.77,33.89-173.29Z" fill="#fff"/><path d="M2219,187.92v-4.76c0-34.4.11-68.79-.12-103.19,0-5.08,1.58-6.56,6.4-6.19a95.75,95.75,0,0,0,13.55,0c4.61-.29,6.31,1.19,6.27,6-.22,25.25-.1,50.49-.1,75.74v90.78l-1.51.62L2125,123.76V237.29h-24v-174Z" fill="#fff"/><path d="M582.19,156.7c-1.16-44.45,35.89-85,85.22-85.09,46.84,0,85.23,38.19,85.34,84.88S714,242.05,667.12,241.67C614.7,241.24,580.8,197.42,582.19,156.7Zm145.29-.08c.42-36.14-30.1-62.19-61.09-61.71-32.39.49-60.28,28.8-59.69,62.8.57,32.66,27.5,59.92,60.26,59.94C700.69,217.66,727.53,190.6,727.48,156.62Z" fill="#fff"/><path d="M143.42,244.39c-4.33.27-8.65.69-13,.77-37.5.73-73.26-4.88-101.93-31.73C7.58,193.81-1.55,169.25.21,140.31c2.66-43.71,37-81,84.75-89.79,17.68-3.26,35.37-2.88,53.11-.82a65,65,0,0,1,6.37,1.51c-51.62,12.32-78.5,44.67-77.9,95.7.6,50.5,27.19,83.45,77.19,96.31Zm-58.16-180c-40.23,11.62-58.35,44.4-58,80,.21,21.68,7.18,41.4,20.47,58.75,9,11.76,20.14,20.5,35.45,25.54-30.25-20.37-44.43-48.17-44.72-83.08C38.14,109.53,55.59,83.42,85.26,64.42Z" fill="#fff"/><path d="M227.5,244.25C270.57,232,297.65,205,302.85,160.94c6.75-57.16-18.52-94.77-75.4-109.6l.11-1.32c11.21-.71,22.42-2.07,33.63-2,20.56.15,40.34,4.57,58.38,14.72,32.29,18.17,49.89,46,51.05,83,1.24,39.48-23.2,73.65-62.07,88.95a146.3,146.3,0,0,1-52.05,10.17c-8,.11-15.94,0-23.91-.07A48.85,48.85,0,0,1,227.5,244.25ZM283.27,63.39c31.35,19.5,49.1,45.7,48.71,82.51-.38,35.77-15,63.74-45.09,83.64,7.67-3.82,15.88-7.21,22.26-12.7,26.07-22.44,36.66-51.32,33.3-85.39C339.22,98.73,316.21,72,283.27,63.39Z" fill="#fff"/><path d="M1836.59,237.9c-.17-2.65-.43-4.77-.44-6.89q0-74.61,0-149.23c0-6.89,0-6.92,6.91-6.92,15.46,0,30.93-.27,45.94,4.52,31,9.88,40.17,45.38,17.87,69.38a12,12,0,0,0-1,1.51,42.52,42.52,0,0,1,24.35,25c10.4,27.45-3.93,53.38-33.67,60.27-7.52,1.74-15.46,2-23.23,2.25C1861.21,238.16,1849.09,237.9,1836.59,237.9ZM1862,216.06c9.81-.9,19.32-.95,28.45-2.83,11.51-2.37,17.26-9.79,17.89-20.34.66-11.19-4.55-19.44-15.24-23.74-10-4-20.41-3.4-31.1-3Zm-1-118.62v34.34c0,14.52,0,14.52,14.52,12.58,10.69-1.43,18-8.72,18.84-18.78,1.21-14.52-3.27-23.08-14.51-25.9C1874,98.22,1867.84,98.2,1861,97.44Z" fill="#fff"/><path d="M1343.94,237.45c-10.53,0-19.77.15-29-.16-1.32,0-2.82-2.07-3.82-3.48q-20.3-28.73-40.46-57.54a10.06,10.06,0,0,0-1.78-2.39,33.43,33.43,0,0,0-4-2.25c-.55,1.41-1.57,2.81-1.58,4.22-.11,18.3-.06,36.59-.09,54.89,0,2.11-.28,4.23-.45,6.55h-24.44c-.11-1.79-.3-3.54-.3-5.28,0-50.57,0-101.14-.12-151.7,0-4.72,1.51-6.08,6-5.88,15.11.68,30.28.48,45.32,1.8,21.94,1.93,37.74,18.51,40.25,40.85,2.43,21.64-10,42.26-29.87,49.55-1.53.57-3.07,1.12-5.47,2C1310.63,191.47,1326.9,213.94,1343.94,237.45Zm-80.71-113.77c0,7.31,0,14.62,0,21.93,0,2.51.65,4.48,3.59,4.06,8.64-1.27,17.48-1.9,25.81-4.3,9.25-2.68,12.61-10.73,13.26-19.74s-2.27-16.69-10.48-21.56c-8.6-5.11-18.11-6-27.84-6.08-3.24,0-4.45,1-4.38,4.26C1263.33,109.39,1263.23,116.54,1263.23,123.68Z" fill="#fff"/><path d="M2385.6,75.16c-2.21,2.33-3.49,3.76-4.86,5.11q-32.62,32.06-65.32,64c-3.07,3-3.71,4.79-.58,8.45,22.49,26.33,44.69,52.9,67,79.41,1.24,1.47,2.36,3,4.26,5.49-11.57,0-22,.15-32.33-.16-1.55-.05-3.28-2.1-4.5-3.57q-26.62-32.34-53.15-64.78c-.83-1-1.75-2-2.64-2.94-3.9,2.33-5.62,5.22-5.56,9.82.28,18.47.12,36.94.12,55.41v5.85h-25V232c0-50.42.07-100.84-.11-151.25,0-4.86,1.39-6.54,6.24-6.13a79.61,79.61,0,0,0,12.64,0c4.69-.35,6.45,1,6.35,6-.32,17.46-.12,34.94-.12,52.41V138l1.15.89c2.89-3.1,5.71-6.27,8.7-9.28,17-17.13,34-34.17,51-51.36a11.08,11.08,0,0,1,8.91-3.6c7.08.2,14.17,0,21.26.08C2380.76,74.69,2382.53,74.93,2385.6,75.16Z" fill="#fff"/><path d="M2091.05,237.86c-9.2,0-17.29.16-25.36-.16-1.24,0-2.84-2-3.52-3.5-4.89-10.36-9.7-20.77-14.27-31.28-1.32-3-2.94-4.22-6.32-4.19q-30,.22-60,0c-3.62,0-5.28,1.32-6.65,4.46-4.44,10.21-9.26,20.25-13.71,30.45-1.38,3.17-3.13,4.52-6.73,4.37-7.13-.3-14.27-.09-22.66-.09l79.51-173.58Zm-55.79-62.57L2011.36,121l-23.66,54.32Z" fill="#fff"/><path d="M1606.07,65.92c26.16,56.94,52.32,113.89,79,171.93-9.2,0-17.41.15-25.61-.18-1.19,0-2.68-2.22-3.38-3.71-4.87-10.37-9.65-20.79-14.26-31.28-1.24-2.83-2.8-4-6-3.94q-30.48.19-60.95,0c-2.92,0-4.45.94-5.64,3.66-4.51,10.35-9.46,20.51-13.89,30.9-1.56,3.67-3.63,4.87-7.53,4.68-6.94-.32-13.9-.09-22-.09,26.55-58,52.69-115,78.82-172.12Zm23.15,109.37c-8.06-18.33-15.76-35.82-23.89-54.3l-23.61,54.3Z" fill="#fff"/><path d="M1222.56,137.29c0,7.21,0,13.66,0,20.11,0,3.69-2.84,3.09-5,3.1-16.46.06-32.92,0-49.38.05a8.92,8.92,0,0,0-8.9,8.88c0,12.31,0,24.62,0,36.93,0,8.23,0,8.23,8.48,8.23h48.46c8.28,0,8.29,0,8.29,8.51a109.34,109.34,0,0,1-.18,11.46c-.13,1.19-2,3.13-3.12,3.13-28.63.09-57.26,0-85.89-.11-.15,0-.29-.13-1-.47-.09-1.29-.29-2.89-.29-4.48,0-50.73,0-101.46-.11-152.19,0-4.39,1.3-5.74,5.64-5.72q39.45.23,78.92,0c4.35,0,6.49,1.07,6.07,5.89a91.89,91.89,0,0,0,0,13c.18,3.52-1.21,4.55-4.64,4.52-18.32-.13-36.64.07-55-.15-4.63-.06-6.23,1-5.69,6.82a154.06,154.06,0,0,1,0,26.74c-.38,4.5.65,5.88,4.55,5.85,17.32-.16,34.63-.07,52-.07Z" fill="#fff"/><path d="M1472.34,200.75c0,8.79.23,17.59-.2,26.36-.09,1.64-2.56,3.72-4.41,4.64-31.1,15.35-61.31,13.5-89.37-6.81-25.47-18.43-37.43-44.32-35.11-75.61,2.72-36.73,28.48-65.65,64.67-74.79,20.24-5.11,39.81-3.66,58.8,5.31,4.08,1.93,6.09,4.27,5.8,9.11-.46,7.56-.12,15.16-.12,24.46-18.66-16.71-38.85-22.86-61.77-16.13-13.18,3.87-23.47,12.21-31.52,23.33-17.12,23.62-13.66,55.3,3.26,75.92,11.26,13.72,26.07,21,43.78,21.68s32-7.19,45-18.3Z" fill="#fff"/><path d="M574.75,201.21c0,8.47.2,17.55-.21,26.61-.06,1.44-2.64,3.15-4.41,4.07-48.32,25.24-108.06-1.41-121.75-54.25-12.33-47.62,17.2-94,66.33-104.09,19.37-4,38-2,55.78,6.92,3.29,1.65,4.54,3.67,4.42,7.34-.26,8-.08,15.9-.08,25.4-19-16.84-39.58-22.95-63-15.4-13.83,4.47-24.12,13.68-32.05,25.74-15.8,24-10.13,58.11,8.56,76.82a60,60,0,0,0,26.75,15.79c10.5,2.92,21.27,3.58,31.37-.53C556.06,211.74,565,206.27,574.75,201.21Z" fill="#fff"/><path d="M156.34,0c8.89,6.85,16.71,12.63,24.15,18.87,1.23,1,1.08,4,1.08,6.14q.08,106.34,0,212.68c0,1.8-.21,3.6-.37,6.13-7.68,0-15.1.11-22.51-.16-.78,0-2.06-2.33-2.11-3.61-.26-6.32-.21-12.65-.21-19q0-100.35-.06-200.7Z" fill="#fff"/><path d="M214,.05V243.29H189v-6.1c0-69.51.18-139-.27-208.53-.05-7.72,2.12-12.3,8.38-16.2C202.62,9,207.61,4.8,214,.05Z" fill="#fff"/><path d="M1769,214.84v22.45h-72v-5.5c0-50.41.07-100.82-.12-151.22,0-4.92,1.56-6.31,5.93-6a105.06,105.06,0,0,0,13.16,0c4.28-.28,5.68,1.12,5.66,5.61-.17,42.26-.12,84.51-.08,126.77,0,7.48-1.58,7.48,7.49,7.48,11.26,0,22.51,0,33.77,0C1764.76,214.43,1766.71,214.68,1769,214.84Z" fill="#fff"/><path d="M1514,237.29h-24.79c-.15-2.32-.41-4.44-.42-6.56q0-74.62,0-149.24c0-6.9,0-6.91,6.9-6.93,4.5,0,9,.12,13.49,0,3.21-.12,5,.87,4.93,3.83,0,1.07-.1,2.59-.1,3.66V237.29Z" fill="#fff"/></g></g></svg>